<svg width="198" height="136" viewBox="0 0 198 136" xmlns="http://www.w3.org/2000/svg">
<path d="M11.3 114.06L6.76 122.74V128H4.94V122.74L0.38 114.06H2.4L5.84 121.12L9.28 114.06H11.3ZM23.2197 122.1C23.2197 122.447 23.1997 122.813 23.1597 123.2H14.3997C14.4664 124.28 14.833 125.127 15.4997 125.74C16.1797 126.34 16.9997 126.64 17.9597 126.64C18.7464 126.64 19.3997 126.46 19.9197 126.1C20.453 125.727 20.8264 125.233 21.0397 124.62H22.9997C22.7064 125.673 22.1197 126.533 21.2397 127.2C20.3597 127.853 19.2664 128.18 17.9597 128.18C16.9197 128.18 15.9864 127.947 15.1597 127.48C14.3464 127.013 13.7064 126.353 13.2397 125.5C12.773 124.633 12.5397 123.633 12.5397 122.5C12.5397 121.367 12.7664 120.373 13.2197 119.52C13.673 118.667 14.3064 118.013 15.1197 117.56C15.9464 117.093 16.893 116.86 17.9597 116.86C18.9997 116.86 19.9197 117.087 20.7197 117.54C21.5197 117.993 22.133 118.62 22.5597 119.42C22.9997 120.207 23.2197 121.1 23.2197 122.1ZM21.3397 121.72C21.3397 121.027 21.1864 120.433 20.8797 119.94C20.573 119.433 20.153 119.053 19.6197 118.8C19.0997 118.533 18.5197 118.4 17.8797 118.4C16.9597 118.4 16.173 118.693 15.5197 119.28C14.8797 119.867 14.513 120.68 14.4197 121.72H21.3397ZM24.942 122.48C24.942 121.36 25.1687 120.38 25.622 119.54C26.0754 118.687 26.6954 118.027 27.482 117.56C28.282 117.093 29.1687 116.86 30.142 116.86C31.102 116.86 31.9354 117.067 32.642 117.48C33.3487 117.893 33.8754 118.413 34.222 119.04V117.04H36.062V128H34.222V125.96C33.862 126.6 33.322 127.133 32.602 127.56C31.8954 127.973 31.0687 128.18 30.122 128.18C29.1487 128.18 28.2687 127.94 27.482 127.46C26.6954 126.98 26.0754 126.307 25.622 125.44C25.1687 124.573 24.942 123.587 24.942 122.48ZM34.222 122.5C34.222 121.673 34.0554 120.953 33.722 120.34C33.3887 119.727 32.9354 119.26 32.362 118.94C31.802 118.607 31.182 118.44 30.502 118.44C29.822 118.44 29.202 118.6 28.642 118.92C28.082 119.24 27.6354 119.707 27.302 120.32C26.9687 120.933 26.802 121.653 26.802 122.48C26.802 123.32 26.9687 124.053 27.302 124.68C27.6354 125.293 28.082 125.767 28.642 126.1C29.202 126.42 29.822 126.58 30.502 126.58C31.182 126.58 31.802 126.42 32.362 126.1C32.9354 125.767 33.3887 125.293 33.722 124.68C34.0554 124.053 34.222 123.327 34.222 122.5ZM40.9577 118.82C41.2777 118.193 41.731 117.707 42.3177 117.36C42.9177 117.013 43.6443 116.84 44.4977 116.84V118.72H44.0177C41.9777 118.72 40.9577 119.827 40.9577 122.04V128H39.1377V117.04H40.9577V118.82ZM50.4786 128.18C49.6386 128.18 48.8853 128.04 48.2186 127.76C47.5519 127.467 47.0253 127.067 46.6386 126.56C46.2519 126.04 46.0386 125.447 45.9986 124.78H47.8786C47.9319 125.327 48.1853 125.773 48.6386 126.12C49.1053 126.467 49.7119 126.64 50.4586 126.64C51.1519 126.64 51.6986 126.487 52.0986 126.18C52.4986 125.873 52.6986 125.487 52.6986 125.02C52.6986 124.54 52.4853 124.187 52.0586 123.96C51.6319 123.72 50.9719 123.487 50.0786 123.26C49.2653 123.047 48.5986 122.833 48.0786 122.62C47.5719 122.393 47.1319 122.067 46.7586 121.64C46.3986 121.2 46.2186 120.627 46.2186 119.92C46.2186 119.36 46.3853 118.847 46.7186 118.38C47.0519 117.913 47.5253 117.547 48.1386 117.28C48.7519 117 49.4519 116.86 50.2386 116.86C51.4519 116.86 52.4319 117.167 53.1786 117.78C53.9253 118.393 54.3253 119.233 54.3786 120.3H52.5586C52.5186 119.727 52.2853 119.267 51.8586 118.92C51.4453 118.573 50.8853 118.4 50.1786 118.4C49.5253 118.4 49.0053 118.54 48.6186 118.82C48.2319 119.1 48.0386 119.467 48.0386 119.92C48.0386 120.28 48.1519 120.58 48.3786 120.82C48.6186 121.047 48.9119 121.233 49.2586 121.38C49.6186 121.513 50.1119 121.667 50.7386 121.84C51.5253 122.053 52.1653 122.267 52.6586 122.48C53.1519 122.68 53.5719 122.987 53.9186 123.4C54.2786 123.813 54.4653 124.353 54.4786 125.02C54.4786 125.62 54.3119 126.16 53.9786 126.64C53.6453 127.12 53.1719 127.5 52.5586 127.78C51.9586 128.047 51.2653 128.18 50.4786 128.18ZM68.6998 128.14C67.4065 128.14 66.2265 127.84 65.1598 127.24C64.0932 126.627 63.2465 125.78 62.6198 124.7C62.0065 123.607 61.6998 122.38 61.6998 121.02C61.6998 119.66 62.0065 118.44 62.6198 117.36C63.2465 116.267 64.0932 115.42 65.1598 114.82C66.2265 114.207 67.4065 113.9 68.6998 113.9C70.0065 113.9 71.1932 114.207 72.2598 114.82C73.3265 115.42 74.1665 116.26 74.7798 117.34C75.3932 118.42 75.6998 119.647 75.6998 121.02C75.6998 122.393 75.3932 123.62 74.7798 124.7C74.1665 125.78 73.3265 126.627 72.2598 127.24C71.1932 127.84 70.0065 128.14 68.6998 128.14ZM68.6998 126.56C69.6732 126.56 70.5465 126.333 71.3198 125.88C72.1065 125.427 72.7198 124.78 73.1598 123.94C73.6132 123.1 73.8398 122.127 73.8398 121.02C73.8398 119.9 73.6132 118.927 73.1598 118.1C72.7198 117.26 72.1132 116.613 71.3398 116.16C70.5665 115.707 69.6865 115.48 68.6998 115.48C67.7132 115.48 66.8332 115.707 66.0598 116.16C65.2865 116.613 64.6732 117.26 64.2198 118.1C63.7798 118.927 63.5598 119.9 63.5598 121.02C63.5598 122.127 63.7798 123.1 64.2198 123.94C64.6732 124.78 65.2865 125.427 66.0598 125.88C66.8465 126.333 67.7265 126.56 68.6998 126.56ZM82.5625 118.54H80.2625V128H78.4425V118.54H77.0225V117.04H78.4425V116.26C78.4425 115.033 78.7558 114.14 79.3825 113.58C80.0225 113.007 81.0425 112.72 82.4425 112.72V114.24C81.6425 114.24 81.0758 114.4 80.7425 114.72C80.4225 115.027 80.2625 115.54 80.2625 116.26V117.04H82.5625V118.54ZM91.8366 115.54V120.2H96.9166V121.7H91.8366V126.5H97.5166V128H90.0166V114.04H97.5166V115.54H91.8366ZM105.99 128L103.39 123.92L100.89 128H98.9905L102.53 122.56L98.9905 117.04H101.05L103.65 121.1L106.13 117.04H108.03L104.51 122.46L108.05 128H105.99ZM111.661 119.06C112.021 118.433 112.554 117.913 113.261 117.5C113.981 117.073 114.814 116.86 115.761 116.86C116.734 116.86 117.614 117.093 118.401 117.56C119.201 118.027 119.827 118.687 120.281 119.54C120.734 120.38 120.961 121.36 120.961 122.48C120.961 123.587 120.734 124.573 120.281 125.44C119.827 126.307 119.201 126.98 118.401 127.46C117.614 127.94 116.734 128.18 115.761 128.18C114.827 128.18 114.001 127.973 113.281 127.56C112.574 127.133 112.034 126.607 111.661 125.98V133.2H109.841V117.04H111.661V119.06ZM119.101 122.48C119.101 121.653 118.934 120.933 118.601 120.32C118.267 119.707 117.814 119.24 117.241 118.92C116.681 118.6 116.061 118.44 115.381 118.44C114.714 118.44 114.094 118.607 113.521 118.94C112.961 119.26 112.507 119.733 112.161 120.36C111.827 120.973 111.661 121.687 111.661 122.5C111.661 123.327 111.827 124.053 112.161 124.68C112.507 125.293 112.961 125.767 113.521 126.1C114.094 126.42 114.714 126.58 115.381 126.58C116.061 126.58 116.681 126.42 117.241 126.1C117.814 125.767 118.267 125.293 118.601 124.68C118.934 124.053 119.101 123.32 119.101 122.48ZM133.356 122.1C133.356 122.447 133.336 122.813 133.296 123.2H124.536C124.603 124.28 124.97 125.127 125.636 125.74C126.316 126.34 127.136 126.64 128.096 126.64C128.883 126.64 129.536 126.46 130.056 126.1C130.59 125.727 130.963 125.233 131.176 124.62H133.136C132.843 125.673 132.256 126.533 131.376 127.2C130.496 127.853 129.403 128.18 128.096 128.18C127.056 128.18 126.123 127.947 125.296 127.48C124.483 127.013 123.843 126.353 123.376 125.5C122.91 124.633 122.676 123.633 122.676 122.5C122.676 121.367 122.903 120.373 123.356 119.52C123.81 118.667 124.443 118.013 125.256 117.56C126.083 117.093 127.03 116.86 128.096 116.86C129.136 116.86 130.056 117.087 130.856 117.54C131.656 117.993 132.27 118.62 132.696 119.42C133.136 120.207 133.356 121.1 133.356 122.1ZM131.476 121.72C131.476 121.027 131.323 120.433 131.016 119.94C130.71 119.433 130.29 119.053 129.756 118.8C129.236 118.533 128.656 118.4 128.016 118.4C127.096 118.4 126.31 118.693 125.656 119.28C125.016 119.867 124.65 120.68 124.556 121.72H131.476ZM137.579 118.82C137.899 118.193 138.352 117.707 138.939 117.36C139.539 117.013 140.265 116.84 141.119 116.84V118.72H140.639C138.599 118.72 137.579 119.827 137.579 122.04V128H135.759V117.04H137.579V118.82ZM144.16 115.26C143.813 115.26 143.52 115.14 143.28 114.9C143.04 114.66 142.92 114.367 142.92 114.02C142.92 113.673 143.04 113.38 143.28 113.14C143.52 112.9 143.813 112.78 144.16 112.78C144.493 112.78 144.773 112.9 145 113.14C145.24 113.38 145.36 113.673 145.36 114.02C145.36 114.367 145.24 114.66 145 114.9C144.773 115.14 144.493 115.26 144.16 115.26ZM145.04 117.04V128H143.22V117.04H145.04ZM158.142 122.1C158.142 122.447 158.122 122.813 158.082 123.2H149.322C149.388 124.28 149.755 125.127 150.422 125.74C151.102 126.34 151.922 126.64 152.882 126.64C153.668 126.64 154.322 126.46 154.842 126.1C155.375 125.727 155.748 125.233 155.962 124.62H157.922C157.628 125.673 157.042 126.533 156.162 127.2C155.282 127.853 154.188 128.18 152.882 128.18C151.842 128.18 150.908 127.947 150.082 127.48C149.268 127.013 148.628 126.353 148.162 125.5C147.695 124.633 147.462 123.633 147.462 122.5C147.462 121.367 147.688 120.373 148.142 119.52C148.595 118.667 149.228 118.013 150.042 117.56C150.868 117.093 151.815 116.86 152.882 116.86C153.922 116.86 154.842 117.087 155.642 117.54C156.442 117.993 157.055 118.62 157.482 119.42C157.922 120.207 158.142 121.1 158.142 122.1ZM156.262 121.72C156.262 121.027 156.108 120.433 155.802 119.94C155.495 119.433 155.075 119.053 154.542 118.8C154.022 118.533 153.442 118.4 152.802 118.4C151.882 118.4 151.095 118.693 150.442 119.28C149.802 119.867 149.435 120.68 149.342 121.72H156.262ZM165.884 116.84C167.217 116.84 168.297 117.247 169.124 118.06C169.951 118.86 170.364 120.02 170.364 121.54V128H168.564V121.8C168.564 120.707 168.291 119.873 167.744 119.3C167.197 118.713 166.451 118.42 165.504 118.42C164.544 118.42 163.777 118.72 163.204 119.32C162.644 119.92 162.364 120.793 162.364 121.94V128H160.544V117.04H162.364V118.6C162.724 118.04 163.211 117.607 163.824 117.3C164.451 116.993 165.137 116.84 165.884 116.84ZM172.657 122.5C172.657 121.367 172.884 120.38 173.337 119.54C173.79 118.687 174.417 118.027 175.217 117.56C176.03 117.093 176.957 116.86 177.997 116.86C179.344 116.86 180.45 117.187 181.317 117.84C182.197 118.493 182.777 119.4 183.057 120.56H181.097C180.91 119.893 180.544 119.367 179.997 118.98C179.464 118.593 178.797 118.4 177.997 118.4C176.957 118.4 176.117 118.76 175.477 119.48C174.837 120.187 174.517 121.193 174.517 122.5C174.517 123.82 174.837 124.84 175.477 125.56C176.117 126.28 176.957 126.64 177.997 126.64C178.797 126.64 179.464 126.453 179.997 126.08C180.53 125.707 180.897 125.173 181.097 124.48H183.057C182.764 125.6 182.177 126.5 181.297 127.18C180.417 127.847 179.317 128.18 177.997 128.18C176.957 128.18 176.03 127.947 175.217 127.48C174.417 127.013 173.79 126.353 173.337 125.5C172.884 124.647 172.657 123.647 172.657 122.5ZM195.485 122.1C195.485 122.447 195.465 122.813 195.425 123.2H186.665C186.732 124.28 187.099 125.127 187.765 125.74C188.445 126.34 189.265 126.64 190.225 126.64C191.012 126.64 191.665 126.46 192.185 126.1C192.719 125.727 193.092 125.233 193.305 124.62H195.265C194.972 125.673 194.385 126.533 193.505 127.2C192.625 127.853 191.532 128.18 190.225 128.18C189.185 128.18 188.252 127.947 187.425 127.48C186.612 127.013 185.972 126.353 185.505 125.5C185.039 124.633 184.805 123.633 184.805 122.5C184.805 121.367 185.032 120.373 185.485 119.52C185.939 118.667 186.572 118.013 187.385 117.56C188.212 117.093 189.159 116.86 190.225 116.86C191.265 116.86 192.185 117.087 192.985 117.54C193.785 117.993 194.399 118.62 194.825 119.42C195.265 120.207 195.485 121.1 195.485 122.1ZM193.605 121.72C193.605 121.027 193.452 120.433 193.145 119.94C192.839 119.433 192.419 119.053 191.885 118.8C191.365 118.533 190.785 118.4 190.145 118.4C189.225 118.4 188.439 118.693 187.785 119.28C187.145 119.867 186.779 120.68 186.685 121.72H193.605Z" fill="#232323" />
<path d="M17.6709 97.4229C11.8571 97.4229 7.51204 95.8164 4.63574 92.6035C1.75944 89.3906 0.321289 84.9691 0.321289 79.3389V75.5752H13.1729V80.0273C13.1729 83.8828 14.6722 85.8105 17.6709 85.8105C20.5778 85.8105 22.0312 83.944 22.0312 80.2109L22.123 77.0439C22.123 75.7894 22.0312 74.4583 21.8477 73.0508C21.6335 71.6126 20.9297 69.9756 19.7363 68.1396C18.9408 67.0381 17.9157 66.4873 16.6611 66.4873H9.13379V55.5635H16.6611C17.9157 55.5635 18.9408 54.9821 19.7363 53.8193C20.9603 52.014 21.6641 50.2699 21.8477 48.5869C22.0312 47.3324 22.123 46.0931 22.123 44.8691L22.0312 41.7021C22.0007 37.9691 20.5166 36.1025 17.5791 36.1025C16.1715 36.1025 15.0853 36.5003 14.3203 37.2959C13.5553 38.0915 13.1729 39.6214 13.1729 41.8857V46.292H0.321289V42.5742C0.321289 36.9134 1.75944 32.4919 4.63574 29.3096C7.51204 26.0967 11.8571 24.4902 17.6709 24.4902C23.5153 24.4902 27.9368 26.0661 30.9355 29.2178C33.9648 32.4001 35.4795 36.791 35.4795 42.3906L35.5254 45.0527C35.5254 47.5312 35.2806 50.1934 34.791 53.0391C34.2708 55.9154 32.8633 58.5775 30.5684 61.0254C32.8327 63.5039 34.2708 66.3037 34.8828 69.4248C35.3112 71.9339 35.5254 74.4277 35.5254 76.9062L35.4795 79.5225C35.4795 85.0609 33.9648 89.4365 30.9355 92.6494C27.9368 95.8317 23.5153 97.4229 17.6709 97.4229ZM62.6146 84.5254C65.8887 84.5254 67.5258 82.5671 67.5258 78.6504V42.8955C67.5258 38.9788 65.8887 37.0205 62.6146 37.0205C59.31 37.0205 57.6576 38.9788 57.6576 42.8955V78.6504C57.6576 82.5365 59.31 84.4948 62.6146 84.5254ZM62.6146 97.4229C56.5255 97.4229 51.8285 95.8011 48.5238 92.5576C45.2497 89.3141 43.6127 84.8314 43.6127 79.1094V42.7578C43.6127 37.0052 45.2497 32.5072 48.5238 29.2637C51.8285 26.0508 56.5255 24.4443 62.6146 24.4443C68.7344 24.4443 73.4161 26.0508 76.6596 29.2637C79.9031 32.5072 81.5248 37.0052 81.5248 42.7578V79.1094C81.5248 84.8314 79.9031 89.3141 76.6596 92.5576C73.4161 95.8011 68.7344 97.4229 62.6146 97.4229ZM118.758 82.9648H106.87V70.3428H95.0281V59.1436H106.87V46.751H118.758V59.1436H130.599V70.3428H118.758V82.9648Z" fill="#232323" />
</svg>
