<svg width="140" height="80" viewBox="0 0 140 80" fill="none" xmlns="http://www.w3.org/2000/svg">
  <path d="M15 48C15 33.6406 26.6406 22 41 22H99C113.359 22 125 33.6406 125 48V50C125 53.3137 122.314 56 119 56H21C17.6863 56 15 53.3137 15 50V48Z" fill="white" fill-opacity="0.28"/>
  <path d="M21 50C21 38.9543 29.9543 30 41 30H99C110.046 30 119 38.9543 119 50" stroke="white" stroke-opacity="0.45" stroke-width="2" stroke-linecap="round"/>
  <rect x="30" y="35" width="10" height="14" rx="4" fill="white" fill-opacity="0.42"/>
  <rect x="43" y="33" width="10" height="16" rx="4" fill="white" fill-opacity="0.42"/>
  <rect x="56" y="32" width="10" height="17" rx="4" fill="white" fill-opacity="0.42"/>
  <rect x="69" y="32" width="10" height="17" rx="4" fill="white" fill-opacity="0.42"/>
  <rect x="82" y="33" width="10" height="16" rx="4" fill="white" fill-opacity="0.42"/>
  <rect x="95" y="35" width="10" height="14" rx="4" fill="white" fill-opacity="0.42"/>
</svg>